<svg xmlns="http://www.w3.org/2000/svg" width="1200" height="800" viewBox="0 0 1200 800"><rect width="1200" height="800" fill="#fff"/><g font-family="Arial,Microsoft YaHei,sans-serif" fill="#111" stroke="#111"><g stroke-width="2" fill="#fff"><rect x="25" y="35" width="205" height="420" rx="4"/><rect x="250" y="35" width="300" height="420" rx="4"/><rect x="570" y="35" width="260" height="420" rx="4"/><rect x="850" y="35" width="325" height="420" rx="4"/><rect x="25" y="500" width="1150" height="240" rx="4"/></g><g font-size="22" font-weight="700" text-anchor="middle"><text x="127" y="75">1. 输入</text><text x="400" y="75">2. 多模态模型</text><text x="700" y="75">3. 结构化输出</text><text x="1012" y="75">4. 二次确认与最终结果</text></g><g font-size="17"><text x="127" y="125" text-anchor="middle">单张厨房 RGB 图像</text><text x="127" y="155" text-anchor="middle">+</text><text x="127" y="185" text-anchor="middle">任务提示词</text><rect x="55" y="225" width="145" height="150" fill="#fff"/><text x="127" y="255" text-anchor="middle" font-weight="700">Prompt</text><text x="72" y="290">• 任务说明</text><text x="72" y="320">• 5 类标签边界</text><text x="72" y="350">• 输出格式约束</text><text x="400" y="112" text-anchor="middle" font-size="19" font-weight="700">SmolVLM-500M-Instruct</text><rect x="280" y="145" width="110" height="70"/><rect x="410" y="145" width="110" height="70"/><text x="335" y="175" text-anchor="middle">视觉编码器</text><text x="335" y="200" text-anchor="middle">SigLIP</text><text x="465" y="175" text-anchor="middle">语言模型</text><text x="465" y="200" text-anchor="middle">Gemma 2</text><path d="M335 215v45M465 215v45M335 260h130" fill="none"/><rect x="315" y="260" width="170" height="65"/><text x="400" y="288" text-anchor="middle">多模态投影层</text><text x="400" y="310" text-anchor="middle">统一表示</text><path d="M400 325v35" fill="none"/><rect x="315" y="360" width="170" height="65"/><text x="400" y="388" text-anchor="middle">自回归生成</text><text x="400" y="410" text-anchor="middle">do_sample=False</text><text x="700" y="120" text-anchor="middle" font-weight="700">标准化 JSON</text><rect x="600" y="150" width="200" height="190"/><text x="620" y="180">result: normal / attention</text><text x="620" y="215">issue_type: 3 类问题</text><text x="620" y="250">evidence: 可见证据</text><text x="620" y="285">suggestion: 处理建议</text><text x="700" y="370" text-anchor="middle">parsing.py</text><text x="700" y="400" text-anchor="middle">JSON / 标签容错解析</text><text x="1012" y="120" text-anchor="middle" font-weight="700">Verification（可选）</text><rect x="885" y="150" width="255" height="80"/><text x="1012" y="180" text-anchor="middle">初判为问题</text><text x="1012" y="205" text-anchor="middle">→ 针对类别再次核验</text><rect x="885" y="255" width="255" height="80"/><text x="1012" y="285" text-anchor="middle">同一 SmolVLM</text><text x="1012" y="310" text-anchor="middle">Yes / No / Uncertain</text><path d="M1012 230v25" fill="none"/><rect x="885" y="360" width="255" height="65"/><text x="1012" y="388" text-anchor="middle">最终巡检结果 + Gradio Demo</text><path d="M230 245h20M550 245h20M830 245h20" fill="none" stroke-width="3" marker-end="url(#a)"/><g font-size="17"><text x="55" y="540" font-weight="700">数据与实验流程</text><rect x="55" y="565" width="150" height="80"/><rect x="230" y="565" width="150" height="80"/><rect x="405" y="565" width="150" height="80"/><rect x="580" y="565" width="150" height="80"/><rect x="755" y="565" width="150" height="80"/><rect x="930" y="565" width="180" height="80"/><text x="130" y="600" text-anchor="middle">NYU Depth V2</text><text x="130" y="625" text-anchor="middle">Kitchen RGB</text><text x="305" y="600" text-anchor="middle">人工审核</text><text x="305" y="625" text-anchor="middle">225 张候选</text><text x="480" y="600" text-anchor="middle">分层抽样</text><text x="480" y="625" text-anchor="middle">Debug 15 / Test 30</text><text x="655" y="600" text-anchor="middle">图片 + Prompt</text><text x="655" y="625" text-anchor="middle">SmolVLM 推理</text><text x="830" y="600" text-anchor="middle">解析与二次确认</text><text x="830" y="625" text-anchor="middle">最终 JSON</text><text x="1020" y="600" text-anchor="middle">评价与 Demo</text><text x="1020" y="625" text-anchor="middle">Accuracy / 误报 / JSON</text><path d="M205 605h25M380 605h25M555 605h25M730 605h25M905 605h25" fill="none" stroke-width="2" marker-end="url(#a)"/><text x="55" y="690">代码入口：inspection/model.py · inspection/pipeline.py · inspection/parsing.py · app.py</text><text x="55" y="715">实验特点：单模型、无训练/微调、单张 RGB、确定性生成、测试集冻结提示词</text></g></g><defs><marker id="a" markerWidth="8" markerHeight="8" refX="7" refY="4" orient="auto"><path d="M0,0 L8,4 L0,8 Z" fill="#111" stroke="none"/></marker></defs></svg>